<?xml version="1.0" encoding="UTF-8" standalone="no"?>
<!-- Created with Inkscape (http://www.inkscape.org/) -->

<svg
   xmlns:dc="http://purl.org/dc/elements/1.1/"
   xmlns:cc="http://creativecommons.org/ns#"
   xmlns:rdf="http://www.w3.org/1999/02/22-rdf-syntax-ns#"
   xmlns:svg="http://www.w3.org/2000/svg"
   xmlns="http://www.w3.org/2000/svg"
   xmlns:sodipodi="http://sodipodi.sourceforge.net/DTD/sodipodi-0.dtd"
   xmlns:inkscape="http://www.inkscape.org/namespaces/inkscape"
   width="175"
   height="175"
   id="svg3336"
   version="1.1"
   inkscape:version="0.91 r13725"
   viewBox="0 0 175 175"
   inkscape:export-filename="C:\Users\rmi\projects\qwiki\src\img\icon16.png"
   inkscape:export-xdpi="8.2299995"
   inkscape:export-ydpi="8.2299995"
   sodipodi:docname="icon3.svg">
  <defs
     id="defs3338">
    <pattern
       y="0"
       x="0"
       height="6"
       width="6"
       patternUnits="userSpaceOnUse"
       id="EMFhbasepattern" />
  </defs>
  <sodipodi:namedview
     id="base"
     pagecolor="#ffffff"
     bordercolor="#666666"
     borderopacity="1.0"
     inkscape:pageopacity="0.0"
     inkscape:pageshadow="2"
     inkscape:zoom="2.7747253"
     inkscape:cx="64.414237"
     inkscape:cy="72.858635"
     inkscape:current-layer="g3374"
     showgrid="true"
     inkscape:grid-bbox="true"
     inkscape:document-units="px"
     fit-margin-top="0"
     fit-margin-left="0"
     fit-margin-right="0"
     fit-margin-bottom="0"
     inkscape:window-width="1920"
     inkscape:window-height="1124"
     inkscape:window-x="1596"
     inkscape:window-y="-4"
     inkscape:window-maximized="1"
     showborder="true" />
  <metadata
     id="metadata3341">
    <rdf:RDF>
      <cc:Work
         rdf:about="">
        <dc:format>image/svg+xml</dc:format>
        <dc:type
           rdf:resource="http://purl.org/dc/dcmitype/StillImage" />
        <dc:title></dc:title>
      </cc:Work>
    </rdf:RDF>
  </metadata>
  <g
     id="layer1"
     inkscape:label="Layer 1"
     inkscape:groupmode="layer"
     transform="translate(97.268891,99.287709)">
    <g
       id="g3374"
       transform="translate(1.94398,-19.431286)">
      <g
         id="g3369">
        <path
           inkscape:connector-curvature="0"
           id="path3349"
           d="m -47.699902,-56.736288 c 21.903451,0 40.1653033,18.723328 40.1653033,49.7394937 0,27.4768733 -14.7751333,45.4422933 -33.6925813,45.4422933 -20.246423,0 -39.828434,-18.573609 -39.828434,-48.0545423 0,-32.2423087 18.252781,-47.1272447 33.355712,-47.1272447 z M 7.3954116,-9.9180773 c 0,-31.7737627 -23.2324216,-50.5070527 -52.9378256,-50.5070527 -16.595804,0 -30.369633,7.218144 -39.50061,18.73329 -7.301109,9.361678 -10.951675,21.335492 -10.951675,34.6950457 0,28.7031283 21.839645,47.6656443 47.894327,49.5000843 -11.506946,7.87626 -20.146433,12.6317 -29.12261,17.67642 -0.67366,0.38891 0,-0.0198 -1.611338,0.8574 -0.619053,0.3491 0.34594,2.33313 1.574925,4.14753 0.773805,1.13651 1.793432,2.30294 2.503506,2.83154 0.263991,0.19925 0.555324,0.73773 0.819315,0.48853 0.264017,-0.26924 0.355062,-0.26924 0.53713,-0.39878 4.10585,-3.01103 9.913955,-9.0726 12.298995,-9.0726 15.43975,0 27.136172,14.454302 47.23699,13.776412 8.9853245,-0.29916 22.4447284,-3.412921 27.7248,-11.667921 2.321389,-3.32006 -2.893504,-8.586316 -6.8809448,-4.129746 -3.6506183,4.14754 -14.5017829,6.413487 -19.3177332,5.152101 -14.12573,-3.699789 -14.533477,-8.614426 -32.695083,-10.348966 -4.4245,-0.41882 -10.514789,1.38571 -11.680122,1.54517 8.302668,-5.68283 13.728344,-10.59773 19.208653,-12.1333 13.610057,-2.153354 27.474985,-8.613703 34.9491385,-18.444068 C 4.0816163,14.189063 7.3954116,2.9828657 7.3954116,-9.9180773 Z"
           style="fill:#000000;fill-opacity:1;fill-rule:evenodd;stroke:none;stroke-width:0.95557326"
           sodipodi:nodetypes="ssssssscscccccccscccsccccs" />
        <path
           inkscape:connector-curvature="0"
           id="path3351"
           d="M 1.33337,10.635326 C -5.6558542,17.484308 -6.8231477,23.375639 -7.4510927,24.50227 L 8.2717786,60.66824 c 0.79756,1.66511 1.72466,2.43276 3.0505404,2.43276 1.19634,0 -0.0398,-0.5684 2.92128,-2.69184 l 12.86115,-29.909628 12.99069,30.168708 c 0.79756,1.66511 1.72466,2.43276 3.05054,2.43276 1.19662,0 2.12372,-0.76765 2.92128,-2.5623 l 16.44029,-38.603201 c 2.11356,-4.974731 4.237,-9.840242 10.73743,-10.218985 0.79756,-0.767644 0.79756,-2.1733933 0,-2.9410373 -3.18036,0.12954 -4.3767,0.638104 -8.88323,0.638104 -4.77548,0 -7.8263,-0.508564 -12.46208,-0.638104 -0.79756,0.767644 -0.79756,2.1733933 0,2.9410373 9.54108,0.508565 7.81614,5.363634 6.09148,9.710703 L 47.393139,46.86024 c -1.32588,3.07057 -2.26314,4.09758 -3.71856,0.51844 L 32.807329,20.659572 c -2.39268,-5.752818 -1.59512,-8.434493 5.16439,-8.943058 0.79756,-0.767644 0.79756,-2.1733933 0,-2.9410373 -4.63607,0.12954 -7.880398,0.3195559 -11.319838,0.3195559 -3.71884,0 0,0 -5.400224,-0.064717 -0.79756,0.767644 -0.415302,2.6830694 0.382258,3.4507134 5.343497,-0.25595 7.429651,1.925717 5.475955,7.164052 l -2.128841,5.86956 -8.75341,20.707489 c -1.72494,3.96805 -2.91112,4.21725 -4.50652,0.25908 L 0.74082249,20.396404 C -1.6419795,14.524207 -4.7682779,11.014069 1.33337,10.635326 Z"
           style="fill:#000000;fill-opacity:1;fill-rule:evenodd;stroke:none"
           sodipodi:nodetypes="cccscccsccccsccccccccscccccccc" />
        <path
           inkscape:connector-curvature="0"
           id="path3353"
           d="m 9.8767786,68.20555 -0.62795,0.29916 c -0.0897,0.16933 -0.18965,0.29887 -0.30931,0.43857 -0.0697,0.02 -0.12954,0.0598 -0.19925,0.0697 -0.02,0 -0.0398,-0.01 -0.0697,0 l -0.49869,0.39878 c 0.12982,-0.0198 0.27912,-0.0398 0.39878,-0.0996 0.30904,-0.11966 0.0897,-0.02 0.73773,-0.39878 0.10979,-0.0598 0.18965,-0.14957 0.26924,-0.23932 0.11966,-0.13942 0.20941,-0.30903 0.29916,-0.46849 z"
           style="fill:#ffffff;fill-opacity:1;fill-rule:evenodd;stroke:none" />
      </g>
    </g>
  </g>
</svg>
